# This file uses centimeters as units for non-parametric coordinates.

mtllib Audience_Only.mtl
g default
v -36.304511 24.218795 -89.925103
v 36.304511 24.218795 -89.925103
v -36.304511 96.827818 -89.925103
v 36.304511 96.827818 -89.925103
vt 0.000000 0.000000
vt 1.000000 0.000000
vt 0.000000 1.000000
vt 1.000000 1.000000
vn 0.000000 0.000000 1.000000
vn 0.000000 0.000000 1.000000
vn 0.000000 0.000000 1.000000
vn 0.000000 0.000000 1.000000
s off
g pPlane1
usemtl lambert8SG
f 1/1/1 2/2/2 4/4/3 3/3/4
