# This file uses centimeters as units for non-parametric coordinates.

mtllib CarShadow.mtl
g default
v -45.755744 -49.074959 85.198261
v -16.024401 -66.049063 114.215682
v 11.880836 -23.624010 41.031491
v 41.612176 -40.598112 70.048908
v 10.310062 -52.047003 89.951554
v -14.733080 -37.749469 65.509760
v -21.542402 -64.320550 111.276804
v 4.112166 -48.508524 83.902485
v 35.680436 -35.767333 61.774351
v -43.471144 -51.801078 89.874625
v -8.893068 -41.083626 71.209539
v 20.240560 -26.952459 46.705225
v 39.482650 -44.748021 77.203733
v 30.555418 -39.651320 68.490866
v 11.823139 -28.956760 50.208395
v 3.411390 -24.154356 41.998633
vt 0.000000 0.000000
vt 1.000000 0.000000
vt 0.000000 1.000000
vt 1.000000 1.000000
vt 1.000000 0.497576
vt 0.000000 0.497576
vt 0.752511 0.000000
vt 0.752511 0.497576
vt 0.752511 1.000000
vt 0.233198 0.000000
vt 0.233198 0.497576
vt 0.233198 1.000000
vt 1.000000 0.801394
vt 0.752511 0.801394
vt 0.233198 0.801394
vt 0.000000 0.801394
vn 0.003235 0.864603 0.502446
vn 0.003235 0.864603 0.502446
vn 0.003235 0.864603 0.502446
vn 0.003235 0.864603 0.502446
vn 0.003235 0.864603 0.502446
vn 0.003235 0.864603 0.502446
vn 0.003235 0.864603 0.502446
vn 0.003235 0.864603 0.502446
vn 0.003235 0.864603 0.502446
vn 0.003235 0.864603 0.502446
vn 0.003235 0.864603 0.502446
vn 0.003235 0.864603 0.502446
vn 0.003235 0.864603 0.502446
vn 0.003235 0.864603 0.502446
vn 0.003235 0.864603 0.502446
vn 0.003235 0.864603 0.502446
s 1
g Shadow
usemtl lambert11SG
f 1/1/1 10/10/2 11/11/3 6/6/4
f 6/6/4 11/11/3 15/15/5 16/16/6
f 7/7/7 2/2/8 5/5/9 8/8/10
f 14/14/11 8/8/10 5/5/9 13/13/12
f 10/10/2 7/7/7 8/8/10 11/11/3
f 15/15/5 11/11/3 8/8/10 14/14/11
f 9/9/13 14/14/11 13/13/12 4/4/14
f 12/12/15 15/15/5 14/14/11 9/9/13
f 16/16/6 15/15/5 12/12/15 3/3/16
